<svg data-v-2cb57da0="" version="1.0" xmlns="http://www.w3.org/2000/svg" xmlns:xlink="http://www.w3.org/1999/xlink" width="100%" height="100%" viewBox="0 0 340.000000 250.000000" preserveAspectRatio="xMidYMid meet" color-interpolation-filters="sRGB" style="margin: auto;"><rect data-v-2cb57da0="" x="0" y="0" width="100%" height="100%" fill="#FFFFFF" fill-opacity="1" class="background"></rect> <rect data-v-2cb57da0="" x="0" y="0" width="100%" height="100%" fill="url(#watermark)" fill-opacity="1" class="watermarklayer"></rect> <g data-v-2cb57da0="" fill="#351C75" class="icon-text-wrapper icon-svg-group iconsvg" transform="translate(3.080810546875,68.5999984741211)"><g class="iconsvg-imagesvg" transform="translate(0,0)"><g><rect fill="#351C75" fill-opacity="0" stroke-width="2" x="0" y="0" width="112.80000000000004" height="112.80000000000004" class="image-rect"></rect> <svg filter="url(#colors2341417379)" x="0" y="0" width="112.80000000000004" height="112.80000000000004" filtersec="colorsf9654581112" class="image-svg-svg primary" style="overflow: visible;"><svg xmlns="http://www.w3.org/2000/svg" viewBox="0.058218732476234436 0.023478398099541664 125.27999877929688 125.2800064086914"><g><g><path d="M103 14.71v53L83.51 60.6 66.4 54.38a10.71 10.71 0 0 0-4.24-.87 10.85 10.85 0 1 0 10.17 14.57l10.19 3.71a21.71 21.71 0 1 1-13.68-28.05l23.26 8.44V7.36a62.16 62.16 0 0 0-10.85-4.55V38a32.29 32.29 0 0 0-19.09-6.22 32.53 32.53 0 1 0 30.58 43.73l10.2 3.71A43.4 43.4 0 1 1 62.16 21a44 44 0 0 1 8.25.8V.5A62.64 62.64 0 1 0 103 14.71z" fill="#000000"></path></g></g></svg></svg> <defs><filter id="colors2341417379"><feColorMatrix type="matrix" values="0 0 0 0 0.04296875  0 0 0 0 0.32421875  0 0 0 0 0.578125  0 0 0 1 0" class="icon-fecolormatrix"></feColorMatrix></filter> <filter id="colorsf9654581112"><feColorMatrix type="matrix" values="0 0 0 0 0.99609375  0 0 0 0 0.99609375  0 0 0 0 0.99609375  0 0 0 1 0" class="icon-fecolormatrix"></feColorMatrix></filter> <filter id="colorsb9121396715"><feColorMatrix type="matrix" values="0 0 0 0 0  0 0 0 0 0  0 0 0 0 0  0 0 0 1 0" class="icon-fecolormatrix"></feColorMatrix></filter></defs></g></g> <g transform="translate(121.80000305175781,39.546077728271484)"><g data-gra="path-name" fill-rule="" class="tp-name iconsvg-namesvg" transform="translate(0,0)"><g transform="scale(1.12)"><g><path d="M16.85-38.85L16.85-37.59 18.19-39.46Q19.01-40.61 19.69-40.96L19.69-40.96Q20.33-41.28 21.74-41.28L21.74-41.28 41.4-41.28Q43.83-41.28 43.83-38.85L43.83-38.85 43.83-0.53Q43.83 1.93 41.4 1.93L41.4 1.93 21.27 1.93Q19.92 1.93 19.31 1.58L19.31 1.58Q18.72 1.23 17.99 0.09L17.99 0.09 16.85-1.76 16.85-0.53Q16.85 1.93 14.41 1.93L14.41 1.93 6.09 1.93Q3.66 1.93 3.66-0.53L3.66-0.53 3.66-38.85Q3.66-41.28 6.09-41.28L6.09-41.28 14.41-41.28Q16.85-41.28 16.85-38.85L16.85-38.85ZM16.85-33.25L16.85-33.25 16.85-6.12Q16.85-3.69 19.31-3.69L19.31-3.69 28.18-3.69Q30.62-3.69 30.62-6.12L30.62-6.12 30.62-33.25Q30.62-35.68 28.18-35.68L28.18-35.68 19.31-35.68Q16.85-35.68 16.85-33.25ZM82.44 1.99L82.44 1.99 53 1.99Q50.57 1.99 50.57-0.44L50.57-0.44 50.57-18.11Q50.57-20.54 53-20.54L53-20.54 69.61-20.54Q72.07-20.54 72.07-22.91L72.07-22.91 72.07-24.4Q72.07-26.78 69.61-26.78L69.61-26.78 53-26.78Q50.57-26.78 50.57-28.97L50.57-28.97 50.57-29.77Q50.57-31.96 53-31.96L53-31.96 82.44-31.96Q84.87-31.96 84.87-29.53L84.87-29.53 84.87-0.44Q84.87 1.99 82.44 1.99ZM69.61-15.73L69.61-15.73 65.42-15.73Q62.96-15.73 62.96-13.3L62.96-13.3 62.96-5.24Q62.96-2.81 65.42-2.81L65.42-2.81 69.61-2.81Q72.07-2.81 72.07-5.24L72.07-5.24 72.07-13.3Q72.07-15.73 69.61-15.73ZM103.24-39.23L112.03-11.48 121.52-39.23Q121.9-40.4 122.49-40.81L122.49-40.81Q123.08-41.22 124.28-41.22L124.28-41.22 131.16-41.22Q133.04-41.22 133.04-39.76L133.04-39.76Q133.04-39.4 132.8-38.82L132.8-38.82 117.86 0.44Q117.42 1.58 116.84 1.99L116.84 1.99Q116.25 2.4 115.02 2.4L115.02 2.4 108.31 2.4Q107.08 2.4 106.49 1.99L106.49 1.99Q105.94 1.58 105.5 0.44L105.5 0.44 91.38-38.82Q91.17-39.38 91.17-39.76L91.17-39.76Q91.17-41.22 93.08-41.22L93.08-41.22 100.52-41.22Q101.72-41.22 102.3-40.81L102.3-40.81Q102.89-40.37 103.24-39.23L103.24-39.23ZM141.06-31.99L141.06-31.99 149.38-31.99Q151.82-31.99 151.82-29.56L151.82-29.56 151.82-0.44Q151.82 1.99 149.38 1.99L149.38 1.99 141.06 1.99Q138.6 1.99 138.6-0.44L138.6-0.44 138.6-29.56Q138.6-31.99 141.06-31.99ZM141.04-41.28L141.04-41.28 149.36-41.28Q151.82-41.28 151.82-38.82L151.82-38.82 151.82-36.39Q151.82-33.93 149.36-33.93L149.36-33.93 141.04-33.93Q138.6-33.93 138.6-36.39L138.6-36.39 138.6-38.82Q138.6-41.28 141.04-41.28ZM177.74-13.95L177.74-13.95 161.02-13.95Q158.58-13.95 158.58-16.41L158.58-16.41 158.58-29.5Q158.58-31.96 161.02-31.96L161.02-31.96 190.52-31.96Q192.95-31.96 192.95-29.82L192.95-29.82 192.95-29.3Q192.95-27.16 190.52-27.16L190.52-27.16 173.82-27.16Q171.39-27.16 171.39-24.73L171.39-24.73 171.39-21.18Q171.39-18.75 173.82-18.75L173.82-18.75 190.55-18.75Q192.98-18.75 192.98-16.32L192.98-16.32 192.98-0.47Q192.98 1.99 190.55 1.99L190.55 1.99 161.04 1.99Q158.61 1.99 158.61-0.15L158.61-0.15 158.61-0.67Q158.61-2.81 161.04-2.81L161.04-2.81 177.74-2.81Q180.18-2.81 180.18-5.24L180.18-5.24 180.18-11.51Q180.18-13.95 177.74-13.95Z" transform="translate(-3.6600000858306885, 41.279998779296875)"></path></g> <!----> <!----> <!----> <!----> <!----> <!----> <!----></g></g> <g data-gra="path-slogan" fill-rule="" class="tp-slogan iconsvg-slogansvg" fill="#E69138" transform="translate(5,54.921600341796875)"><rect x="0" height="1" y="4.894999980926514" width="68.60419654846191"></rect> <rect height="1" y="4.894999980926514" width="68.60419654846191" x="133.43419456481934"></rect> <g transform="translate(71.60419654846191,0)"><g transform="scale(1)"><path d="M3.14-9.66L3.14-9.66Q4.08-9.56 4.36-9.42L4.36-9.42Q4.36-9.38 4.31-9.28L4.31-9.28Q4.08-8.91 4.08-8.30L4.08-8.30L4.08-7.03L5.06-7.03Q5.81-7.03 6.33-7.13L6.33-7.13Q6.42-7.13 6.42-7.13L6.42-7.13L6.42-6.19Q6.42-6.19 6.28-6.19L6.28-6.19Q5.67-6.28 5.02-6.28L5.02-6.28L4.08-6.28L4.08-5.72Q4.08-5.06 4.17-4.59L4.17-4.59Q4.17-4.50 4.17-4.45L4.17-4.45L3.14-4.45Q3.14-4.50 3.14-4.64L3.14-4.64Q3.23-5.20 3.23-5.72L3.23-5.72L3.23-6.23Q2.39-4.83 1.13-3.89L1.13-3.89Q0.89-4.27 0.38-4.64L0.38-4.64Q0.38-4.64 0.47-4.69L0.47-4.69Q1.83-5.20 2.48-6.23L2.48-6.23L2.16-6.23Q1.55-6.23 0.84-6.14L0.84-6.14Q0.75-6.14 0.70-6.14L0.70-6.14L0.70-7.13Q0.75-7.13 0.89-7.13L0.89-7.13Q1.59-7.03 2.16-7.03L2.16-7.03L3.23-7.03L3.23-8.30Q3.23-8.95 3.14-9.52L3.14-9.52Q3.14-9.61 3.14-9.66ZM7.55-9.42L7.55-9.42Q8.95-9.23 8.95-9.05L8.95-9.05Q8.95-9 8.91-8.86L8.91-8.86Q8.53-8.34 8.20-7.31L8.20-7.31L10.03-7.31Q10.64-7.31 11.20-7.41L11.20-7.41Q11.30-7.41 11.34-7.41L11.34-7.41L11.34-6.42Q11.30-6.42 11.16-6.47L11.16-6.47Q10.73-6.52 10.36-6.52L10.36-6.52Q10.13-2.48 9.23-1.17L9.23-1.17Q10.17-0.28 11.44 0L11.44 0Q11.02 0.42 10.69 1.03L10.69 1.03Q9.80 0.52 8.67-0.52L8.67-0.52Q7.69 0.42 6 1.13L6 1.13Q5.77 0.80 5.16 0.28L5.16 0.28Q6.94-0.09 8.16-1.27L8.16-1.27Q7.55-2.58 7.27-4.73L7.27-4.73Q7.08-4.41 6.89-3.98L6.89-3.98Q6.75-4.22 6.09-4.45L6.09-4.45Q7.27-6.33 7.55-9.42ZM1.17-8.86L2.11-9.05Q2.34-8.67 2.67-7.55L2.67-7.55L1.78-7.36Q1.50-8.39 1.17-8.86L1.17-8.86ZM5.25-9.05L5.25-9.05Q6.09-8.72 6.19-8.58L6.19-8.58Q6.19-8.58 6.14-8.53L6.14-8.53Q5.81-8.34 5.34-7.27L5.34-7.27L4.64-7.45Q5.16-8.58 5.25-9.05ZM9.38-6.56L9.38-6.56L7.97-6.56Q7.73-5.91 7.41-5.06L7.41-5.06L8.25-5.06Q8.25-5.06 8.25-5.02L8.25-5.02Q8.02-3.84 8.67-1.97L8.67-1.97Q9.33-3.61 9.38-6.56ZM4.27-5.44L4.97-6Q5.53-5.58 6.09-4.92L6.09-4.92L5.44-4.31Q4.83-5.06 4.27-5.44L4.27-5.44ZM2.91-4.36L2.91-4.36Q3.98-4.17 4.03-4.03L4.03-4.03Q4.03-3.94 3.94-3.80L3.94-3.80Q3.75-3.61 3.61-3.38L3.61-3.38L4.92-3.38Q5.16-3.38 5.81-3.42L5.81-3.42Q6.19-3.47 6.42-3.47L6.42-3.47Q5.91-2.25 5.06-1.13L5.06-1.13Q5.53-0.94 6.14-0.70L6.14-0.70L5.48 0Q5.11-0.14 4.45-0.42L4.45-0.42Q3.47 0.42 1.13 0.98L1.13 0.98Q0.84 0.42 0.33 0L0.33 0Q2.53-0.05 3.52-0.75L3.52-0.75Q2.30-1.08 1.50-1.17L1.50-1.17Q1.50-1.22 1.78-1.69L1.78-1.69Q2.16-2.34 2.30-2.63L2.30-2.63L1.97-2.63Q1.41-2.63 0.84-2.53L0.84-2.53Q0.70-2.53 0.66-2.53L0.66-2.53L0.66-3.47Q0.70-3.47 0.84-3.47L0.84-3.47Q1.50-3.38 2.02-3.38L2.02-3.38L2.63-3.38Q2.81-3.75 2.91-4.36ZM5.06-2.67L5.06-2.67L3.23-2.67Q3-2.30 2.72-1.73L2.72-1.73Q2.86-1.69 3.23-1.64L3.23-1.64Q3.98-1.45 4.22-1.41L4.22-1.41Q4.73-1.92 5.06-2.67ZM14.11-9.56L14.11-9.56Q15.28-9.52 15.38-9.33L15.38-9.33Q15.38-9.28 15.28-9.19L15.28-9.19Q15.05-8.86 15.05-8.63L15.05-8.63L15.05-7.13L15.28-7.13Q15.80-7.13 16.31-7.22L16.31-7.22Q16.41-7.22 16.45-7.22L16.45-7.22L16.45-6.19Q16.41-6.19 16.22-6.19L16.22-6.19Q15.70-6.28 15.28-6.28L15.28-6.28L15.05-6.28L15.05-4.64L16.36-5.25L16.41-4.31L15.05-3.66L15.05-0.56Q15.28 0.75 13.22 0.75L13.22 0.75Q13.22 0.33 12.84-0.38L12.84-0.38Q12.80-0.47 12.80-0.47L12.80-0.47Q14.16-0.09 14.16-0.70L14.16-0.70L14.16-3.38L12.80-2.72L12.56-3.66L14.16-4.31L14.16-6.28L13.97-6.28Q13.45-6.28 12.89-6.19L12.89-6.19Q12.80-6.19 12.75-6.19L12.75-6.19L12.75-7.22Q12.80-7.22 12.89-7.22L12.89-7.22Q13.50-7.13 13.97-7.13L13.97-7.13L14.16-7.13L14.16-8.48Q14.16-8.91 14.11-9.42L14.11-9.42Q14.11-9.52 14.11-9.56ZM22.83-9.19L22.83-9.19Q22.78-8.91 22.78-7.73L22.78-7.73Q22.78-6.75 22.88-6.19L22.88-6.19Q22.69-6.23 21.70-6.19L21.70-6.19L20.58-6.19L20.58-4.92L21.98-4.92Q22.55-4.92 23.25-5.02L23.25-5.02Q23.39-5.02 23.44-5.02L23.44-5.02L23.44-4.03Q23.39-4.03 23.25-4.03L23.25-4.03Q22.59-4.13 21.94-4.13L21.94-4.13L20.58-4.13L20.58-2.95L21.75-2.95Q22.50-2.95 22.69-3.05L22.69-3.05Q22.64-2.39 22.64-0.66L22.64-0.66Q22.64 0.75 22.73 0.94L22.73 0.94L21.66 0.94Q21.70 0.89 21.70 0.19L21.70 0.19L18.94 0.19Q18.94 0.38 18.98 0.75L18.98 0.75Q18.98 0.94 18.98 0.98L18.98 0.98L17.86 0.98Q18 0.42 18-0.80L18-0.80Q18-2.77 17.95-3.05L17.95-3.05Q18.09-2.95 18.89-2.95L18.89-2.95L19.73-2.95L19.73-4.13L17.72-4.13Q17.63-1.22 16.17 0.80L16.17 0.80Q15.66 0.42 15.09 0.42L15.09 0.42Q17.44-1.45 16.78-9.14L16.78-9.14Q16.78-9.14 16.88-9.14L16.88-9.14Q17.53-9.09 18.33-9.09L18.33-9.09L21.23-9.09Q22.03-9.09 22.83-9.19ZM21.89-8.20L17.72-8.20L17.72-7.03L21.89-7.03L21.89-8.20ZM19.73-6.19L17.77-6.19L17.77-4.92L19.73-4.92L19.73-6.19ZM21.70-2.20L18.94-2.20L18.94-0.47L21.70-0.47L21.70-2.20ZM24.56-7.97L24.56-9.05Q25.41-8.95 26.81-8.95L26.81-8.95L33.75-8.95Q34.55-8.95 35.48-9.05L35.48-9.05L35.48-7.97Q34.73-8.06 33.75-8.06L33.75-8.06L33.33-8.06L33.33 0.14Q33.19 0.89 31.13 0.94L31.13 0.94Q31.08 0.33 30.61-0.33L30.61-0.33Q32.30 0 32.25-0.56L32.25-0.56L32.25-8.06L26.81-8.06Q25.41-8.06 24.56-7.97L24.56-7.97ZM29.48-5.67L27.23-5.67L27.23-3.47L29.48-3.47L29.48-5.67ZM26.11-6.66L26.11-6.66Q26.77-6.56 27.23-6.61L27.23-6.61L29.30-6.61Q30-6.56 30.56-6.66L30.56-6.66Q30.52-6.05 30.52-5.63L30.52-5.63L30.52-2.48Q30.52-1.88 30.56-1.55L30.56-1.55L29.34-1.55Q29.34-1.59 29.34-1.59L29.34-1.59Q29.44-2.06 29.44-2.53L29.44-2.53L27.23-2.53L27.23-2.11Q27.23-1.41 27.33-1.03L27.33-1.03L26.11-1.03Q26.16-1.41 26.16-1.97L26.16-1.97L26.16-5.63Q26.20-6.05 26.11-6.66ZM38.16-9.28L39.19-9.66Q39.33-9.42 39.70-8.63L39.70-8.63Q39.89-8.16 39.98-7.97L39.98-7.97L38.91-7.59Q38.63-8.48 38.16-9.28L38.16-9.28ZM43.31-7.36L43.31-7.36Q44.58-7.31 44.53-7.13L44.53-7.13Q44.53-7.08 44.48-6.94L44.48-6.94Q44.39-6.70 44.34-6.52L44.34-6.52Q44.34-6.47 44.34-6.33L44.34-6.33Q44.16-4.50 43.88-3.38L43.88-3.38Q44.86-3.33 44.81-3.14L44.81-3.14Q44.81-3.09 44.77-2.95L44.77-2.95Q44.63-2.72 44.63-2.34L44.63-2.34L44.63-0.38Q44.58 0 45.05 0L45.05 0Q45.47 0 46.22-0.05L46.22-0.05Q46.64-0.28 46.59-1.36L46.59-1.36Q47.25-0.89 47.72-0.80L47.72-0.80Q47.44 0.61 46.83 0.70L46.83 0.70Q45.94 0.94 44.48 0.80L44.48 0.80Q43.69 0.75 43.73 0.14L43.73 0.14L43.73-2.81Q43.17-0.56 40.73 1.08L40.73 1.08Q40.36 0.61 39.61 0.28L39.61 0.28Q42.70-0.84 43.22-4.36L43.22-4.36Q43.41-6.05 43.31-7.36ZM38.30-7.22L38.30-7.22L38.91-7.22Q39.75-7.22 40.55-7.27L40.55-7.27Q40.64-7.27 40.59-7.17L40.59-7.17Q39.80-5.48 39.23-4.73L39.23-4.73L39.23-4.22L39.98-4.64Q40.41-3.98 40.97-3.09L40.97-3.09L40.03-2.58Q39.66-3.70 39.23-4.03L39.23-4.03L39.23-0.70Q39.28 0.52 39.33 1.03L39.33 1.03L38.20 1.03Q38.20 0.84 38.25 0.28L38.25 0.28Q38.30-0.42 38.30-0.75L38.30-0.75L38.30-3.70Q37.69-2.77 36.89-2.06L36.89-2.06Q36.70-2.67 36.33-3.05L36.33-3.05Q37.59-3.84 39.38-6.42L39.38-6.42L38.25-6.42Q37.13-6.42 36.80-6.38L36.80-6.38L36.80-7.36Q36.89-7.36 37.13-7.31L37.13-7.31Q37.88-7.22 38.30-7.22ZM41.25-9.14L41.25-9.14Q41.95-9 42.56-9.05L42.56-9.05L45.14-9.05Q45.70-9 46.50-9.14L46.50-9.14Q46.41-8.53 46.45-8.06L46.45-8.06L46.45-3.94Q46.41-3.19 46.55-2.77L46.55-2.77L45.38-2.77Q45.47-3.38 45.47-3.94L45.47-3.94L45.47-8.16L42.28-8.16L42.28-4.17Q42.28-3.47 42.38-2.77L42.38-2.77L41.20-2.77Q41.30-3.61 41.30-4.13L41.30-4.13L41.30-8.02Q41.30-8.44 41.25-9.14ZM51.23-9.66L51.23-9.66Q52.73-9.23 52.73-9.09L52.73-9.09Q52.73-9.05 52.64-8.95L52.64-8.95Q52.08-8.44 51.56-7.13L51.56-7.13L51.56-0.56Q51.56 0.19 51.66 0.89L51.66 0.89Q51.66 1.03 51.66 1.08L51.66 1.08L50.48 1.08Q50.48 1.03 50.48 0.89L50.48 0.89Q50.58 0.14 50.58-0.56L50.58-0.56L50.58-5.53Q49.92-4.31 49.22-3.52L49.22-3.52Q48.80-4.03 48.33-4.27L48.33-4.27Q50.48-6.09 51.23-9.66ZM54.14-9.47L54.14-9.47Q55.41-9.47 55.50-9.33L55.50-9.33Q55.50-9.28 55.45-9.19L55.45-9.19Q55.17-8.81 55.17-8.16L55.17-8.16L55.17-4.64Q56.72-6.38 57.56-8.20L57.56-8.20Q58.55-7.69 58.73-7.41L58.73-7.41Q58.73-7.36 58.64-7.31L58.64-7.31Q58.27-7.08 57.98-6.70L57.98-6.70Q56.25-4.41 55.17-3.42L55.17-3.42L55.17-0.89Q54.89 0 56.48-0.09L56.48-0.09Q58.08 0.19 57.98-1.69L57.98-1.69Q57.98-1.69 58.27-1.50L58.27-1.50Q58.78-1.13 59.16-0.89L59.16-0.89Q58.69 0.94 57.52 0.75L57.52 0.75L55.97 0.75Q53.91 0.89 54.19-0.28L54.19-0.28L54.19-2.67Q53.25-1.92 52.41-1.45L52.41-1.45Q52.17-1.88 51.75-2.30L51.75-2.30Q51.66-2.44 51.66-2.44L51.66-2.44Q52.83-2.67 54.19-3.84L54.19-3.84L54.19-8.63Q54.19-9.28 54.14-9.47Z" transform="translate(-0.328125, 9.65625)"></path></g></g></g></g></g><defs v-gra="od"></defs></svg>